<svg width="31" height="25" viewBox="0 0 31 25" fill="none" xmlns="http://www.w3.org/2000/svg">
<path d="M27.4475 6.42094C27.4665 6.68742 27.4665 6.95396 27.4665 7.22045C27.4665 15.3486 21.28 24.7141 9.97287 24.7141C6.48936 24.7141 3.25334 23.7052 0.53125 21.954C1.02619 22.011 1.50203 22.0301 2.01602 22.0301C4.89033 22.0301 7.53631 21.0593 9.64926 19.4032C6.94621 19.3461 4.68098 17.5758 3.90051 15.1392C4.28125 15.1963 4.66193 15.2344 5.06172 15.2344C5.61373 15.2344 6.1658 15.1582 6.67973 15.025C3.86248 14.4539 1.74947 11.9793 1.74947 8.99074V8.91463C2.56797 9.37148 3.51982 9.65701 4.52863 9.69504C2.87254 8.59096 1.78756 6.70646 1.78756 4.57447C1.78756 3.43236 2.09207 2.38541 2.6251 1.4717C5.65176 5.20266 10.2013 7.63916 15.3027 7.9057C15.2076 7.44885 15.1504 6.97301 15.1504 6.49711C15.1504 3.10875 17.8916 0.348633 21.2989 0.348633C23.0692 0.348633 24.6682 1.09102 25.7913 2.29025C27.1809 2.02377 28.5133 1.50979 29.6936 0.805488C29.2367 2.23318 28.2659 3.43242 26.9905 4.19379C28.2279 4.06061 29.4271 3.71789 30.5311 3.24205C29.6937 4.46027 28.6467 5.54525 27.4475 6.42094Z" fill="#29D9D5"/>
</svg>
