<svg width="16" height="16" viewBox="0 0 16 16" fill="none" xmlns="http://www.w3.org/2000/svg">
<path d="M8.9875 15.6C11.125 13.5937 16 8.73125 16 6C16 2.6875 12.4167 0 8 0C3.58333 0 0 2.6875 0 6C0 8.73125 4.875 13.5937 7.0125 15.6C7.525 16.0781 8.475 16.0781 8.9875 15.6ZM8 4C8.70724 4 9.38552 4.21071 9.88562 4.58579C10.3857 4.96086 10.6667 5.46957 10.6667 6C10.6667 6.53043 10.3857 7.03914 9.88562 7.41421C9.38552 7.78929 8.70724 8 8 8C7.29276 8 6.61448 7.78929 6.11438 7.41421C5.61428 7.03914 5.33333 6.53043 5.33333 6C5.33333 5.46957 5.61428 4.96086 6.11438 4.58579C6.61448 4.21071 7.29276 4 8 4Z" fill="white"/>
</svg>
