<svg width="15" height="15" viewBox="0 0 15 15" fill="none" xmlns="http://www.w3.org/2000/svg">
<path d="M7.5 0C9.48912 0 11.3968 0.790176 12.8033 2.1967C14.2098 3.60322 15 5.51088 15 7.5C15 9.48912 14.2098 11.3968 12.8033 12.8033C11.3968 14.2098 9.48912 15 7.5 15C5.51088 15 3.60322 14.2098 2.1967 12.8033C0.790176 11.3968 0 9.48912 0 7.5C0 5.51088 0.790176 3.60322 2.1967 2.1967C3.60322 0.790176 5.51088 0 7.5 0ZM6.79688 3.51562V7.5C6.79688 7.73438 6.91406 7.9541 7.11035 8.08594L9.92285 9.96094C10.2451 10.1777 10.6816 10.0898 10.8984 9.76465C11.1152 9.43945 11.0273 9.00586 10.7021 8.78906L8.20312 7.125V3.51562C8.20312 3.12598 7.88965 2.8125 7.5 2.8125C7.11035 2.8125 6.79688 3.12598 6.79688 3.51562Z" fill="white"/>
</svg>
