<svg width="15" height="15" viewBox="0 0 15 15" fill="none" xmlns="http://www.w3.org/2000/svg">
<path d="M7.5 7.5C8.63664 7.5 9.72673 7.10491 10.5305 6.40165C11.3342 5.69839 11.7857 4.74456 11.7857 3.75C11.7857 2.75544 11.3342 1.80161 10.5305 1.09835C9.72673 0.395088 8.63664 0 7.5 0C6.36336 0 5.27327 0.395088 4.46954 1.09835C3.66581 1.80161 3.21429 2.75544 3.21429 3.75C3.21429 4.74456 3.66581 5.69839 4.46954 6.40165C5.27327 7.10491 6.36336 7.5 7.5 7.5ZM5.96987 8.90625C2.67188 8.90625 0 11.2441 0 14.1299C0 14.6104 0.445313 15 0.99442 15H14.0056C14.5547 15 15 14.6104 15 14.1299C15 11.2441 12.3281 8.90625 9.03013 8.90625H5.96987Z" fill="#29D9D5"/>
</svg>
