<svg width="31" height="27" viewBox="0 0 31 27" fill="none" xmlns="http://www.w3.org/2000/svg">
<path d="M15.543 6.79297C11.284 6.79297 7.84877 9.79883 7.84877 13.5254C7.84877 17.252 11.284 20.2578 15.543 20.2578C19.8019 20.2578 23.2372 17.252 23.2372 13.5254C23.2372 9.79883 19.8019 6.79297 15.543 6.79297ZM15.543 17.9023C12.7907 17.9023 10.5407 15.9395 10.5407 13.5254C10.5407 11.1113 12.784 9.14844 15.543 9.14844C18.3019 9.14844 20.5452 11.1113 20.5452 13.5254C20.5452 15.9395 18.2952 17.9023 15.543 17.9023ZM25.3465 6.51758C25.3465 7.39062 24.543 8.08789 23.5519 8.08789C22.5541 8.08789 21.7573 7.38477 21.7573 6.51758C21.7573 5.65039 22.5608 4.94727 23.5519 4.94727C24.543 4.94727 25.3465 5.65039 25.3465 6.51758ZM30.4425 8.11133C30.3287 6.00781 29.7796 4.14453 28.0184 2.60937C26.264 1.07422 24.1345 0.59375 21.7305 0.488281C19.2528 0.365234 11.8265 0.365234 9.34877 0.488281C6.95145 0.587891 4.82199 1.06836 3.06083 2.60352C1.29967 4.13867 0.757254 6.00195 0.636719 8.10547C0.496094 10.2734 0.496094 16.7715 0.636719 18.9395C0.750558 21.043 1.29967 22.9062 3.06083 24.4414C4.82199 25.9766 6.94475 26.457 9.34877 26.5625C11.8265 26.6855 19.2528 26.6855 21.7305 26.5625C24.1345 26.4629 26.264 25.9824 28.0184 24.4414C29.7729 22.9062 30.322 21.043 30.4425 18.9395C30.5831 16.7715 30.5831 10.2793 30.4425 8.11133ZM27.2416 21.2656C26.7193 22.4141 25.7081 23.2988 24.389 23.7617C22.4135 24.4473 17.726 24.2891 15.543 24.2891C13.3599 24.2891 8.66574 24.4414 6.69699 23.7617C5.38449 23.3047 4.37333 22.4199 3.84431 21.2656C3.06083 19.5371 3.24163 15.4355 3.24163 13.5254C3.24163 11.6152 3.06752 7.50781 3.84431 5.78516C4.36663 4.63672 5.37779 3.75195 6.69699 3.28906C8.67243 2.60352 13.3599 2.76172 15.543 2.76172C17.726 2.76172 22.4202 2.60937 24.389 3.28906C25.7015 3.74609 26.7126 4.63086 27.2416 5.78516C28.0251 7.51367 27.8443 11.6152 27.8443 13.5254C27.8443 15.4355 28.0251 19.543 27.2416 21.2656Z" fill="#29D9D5"/>
</svg>
