<svg width="31" height="27" viewBox="0 0 31 27" fill="none" xmlns="http://www.w3.org/2000/svg">
<path d="M28.3884 0.40625H2.66741C1.48884 0.40625 0.53125 1.25586 0.53125 2.29883V24.7637C0.53125 25.8066 1.48884 26.6562 2.66741 26.6562H28.3884C29.567 26.6562 30.5312 25.8066 30.5312 24.7637V2.29883C30.5312 1.25586 29.567 0.40625 28.3884 0.40625ZM9.59821 22.9062H5.15179V10.3789H9.60491V22.9062H9.59821ZM7.375 8.66797C5.94866 8.66797 4.79687 7.6543 4.79687 6.41211C4.79687 5.16992 5.94866 4.15625 7.375 4.15625C8.79464 4.15625 9.95312 5.16992 9.95312 6.41211C9.95312 7.66016 8.80134 8.66797 7.375 8.66797ZM26.2656 22.9062H21.8192V16.8125C21.8192 15.3594 21.7857 13.4902 19.5089 13.4902C17.192 13.4902 16.8371 15.0723 16.8371 16.707V22.9062H12.3906V10.3789H16.6562V12.0898H16.7165C17.3125 11.1055 18.7656 10.0684 20.9286 10.0684C25.4286 10.0684 26.2656 12.6641 26.2656 16.0391V22.9062Z" fill="#29D9D5"/>
</svg>
